# xmcd CD database file
#
# Track frame offsets:
#	150
#	13282
#	31892
#	44647
#	64121
#	85566
#	104158
#	121230
#	144671
#
# Disc length: 2107 seconds
#
# Revision: 0
# Processed by: cddbd v1.5.2PL0 Copyright (c) Steve Scherf et al.
# Submitted via: CDex 1.51
#
DISCID=7c083909
DTITLE=Tony Vega Band - Black Magic Box
DYEAR=2016
DGENRE=Blues
TTITLE0=Panic Attack
TTITLE1=I'm Leaving You
TTITLE2=Lo Fi Betty
TTITLE3=Little Black Dress
TTITLE4=Moody Park
TTITLE5=Penguins
TTITLE6=Drinking Beer
TTITLE7=Frisco
TTITLE8=Begin The Blues
EXTD=YEAR: 2016
EXTT0=
EXTT1=
EXTT2=
EXTT3=
EXTT4=
EXTT5=
EXTT6=
EXTT7=
EXTT8=
PLAYORDER=
